<?xml version="1.0" encoding="UTF-8"?>
<svg id="Layer_1" xmlns="http://www.w3.org/2000/svg" version="1.1" viewBox="0 0 377.7 144">
  <!-- Generator: Adobe Illustrator 29.2.1, SVG Export Plug-In . SVG Version: 2.1.0 Build 116)  -->
  <defs>
    <style>
      .st0 {
        fill: #00844d;
      }
    </style>
  </defs>
  <g>
    <path class="st0" d="M86.5,125.2v12h-7.6v-27.1h.4l15.3,12.4v-12h7.6v27.1h-.3l-15.4-12.4Z"/>
    <path class="st0" d="M120.2,109.9c8.4,0,14.3,6.3,14.3,13.9s-5.9,13.9-14.3,13.9-14.3-6.2-14.3-13.9,5.9-13.9,14.3-13.9ZM120.2,130.7c3.9,0,6.5-3.2,6.5-6.8s-2.5-6.8-6.5-6.8-6.5,3.3-6.5,6.8,2.6,6.8,6.5,6.8Z"/>
    <path class="st0" d="M143,110.4l4.5,16.1h0l4.9-16.1h5.7l4.9,16.1h0l4.5-16.1h8.7l-9.4,26.8h-6.7l-4.9-14.2-4.9,14.2h-6.7l-9.4-26.8h8.7Z"/>
  </g>
  <g>
    <path class="st0" d="M7.2,137.1v-9.1c0-6.1,2.3-11,7.7-11s4.4,1.7,5,3.5c.6-2.2,2.8-4.4,6-4.4,5.7,0,8.1,4.7,8.1,11.4v9.7H7.2ZM13.4,129.7h4.6v-2.2c0-1.5-.6-2.8-2.3-2.8s-2.3,1.3-2.3,2.8v2.2ZM22.8,129.7h4.9v-2.7c0-1.5-.6-3-2.5-3s-2.5,1.5-2.5,3v2.7Z"/>
    <path class="st0" d="M7.2,113.4v-7.8h15.8c2.8,0,4.4-1.4,4.4-4.2s-1.6-4.2-4.4-4.2H7.2v-7.8h16.7c6.4,0,10.7,4.4,10.7,12s-4.3,12-10.7,12H7.2Z"/>
    <path class="st0" d="M34,77.9v7.8H7.2v-7.8h26.8Z"/>
    <path class="st0" d="M34,74.2H7.2v-7.8h20.2v-9.1h6.5v16.9Z"/>
    <path class="st0" d="M34,53.9H7.2v-9.4c0-9.6,5.7-15.4,13.4-15.4s13.4,5.8,13.4,15.4v9.4ZM13.7,46.1h13.7v-1.5c0-5.2-3.3-7.7-6.8-7.7s-6.8,2.5-6.8,7.7v1.5Z"/>
  </g>
  <g>
    <path class="st0" d="M45.5,28.8h20.1v10.3c0,2.3-.2,3.9-.2,3.9h.2c2.7-5.7,10.5-10.1,19-10.1,15.5,0,28.4,11.7,28.4,32.1s-10.8,35.5-27.9,35.5-14.9-3.5-18-7.9h-.2s.4,1.6.4,5.1v39.1h-21.7V28.8ZM92.6,66.7c0-8.5-5.4-15-12.3-15s-12.3,5.8-12.3,15,5.8,15,12.3,15,12.3-6.3,12.3-15Z"/>
    <path class="st0" d="M140,7.8v28.4c0,2.8-.1,5.7-.2,6.9,3.5-4.9,10.5-10.2,18.9-10.2,13,0,21.3,8,21.3,24.6v41.3h-21.7v-36.4c0-4.7-1.9-8.4-6.6-8.4-6.8,0-11.2,5.2-11.2,12.5v32.2h-21.8V7.8h21.3Z"/>
    <path class="st0" d="M199.4,6c7.1,0,11.6,4.3,11.6,11.2s-4.5,11.3-11.6,11.3-11.7-4.4-11.7-11.3,4.5-11.2,11.7-11.2ZM210.3,34.6v64.2h-21.8V34.6h21.8Z"/>
    <path class="st0" d="M249.5,82.7v-.9c-1.1.3-2.2.5-3.3.5-3,0-5.6-1.5-5.6-6.7V7.8h-21.7v72.6c0,14.7,9.4,20.1,20.5,20.1s11.3-1.1,13.3-1.9c.5-.2,1.4-.6,2.2-.9-3.3-3.2-5.4-8-5.4-14.9Z"/>
    <path class="st0" d="M255.8,7.8h21.7v67.8c0,5.2,2.6,6.7,5.6,6.7s5.1-1,6.5-1.6v17.9c-1.9.9-6.8,1.9-13.3,1.9-11.1,0-20.5-5.4-20.5-20.1V7.8Z"/>
    <rect class="st0" x="45.5" y="27.9" width="21.7" height="109.3"/>
    <rect class="st0" x="118.7" y="7.8" width="21.7" height="91"/>
    <path class="st0" d="M340.5,29.7l-12.2,44.6-11.9-44.6h-28.8l25.5,71.9-.6,1.3c-2.8,6.5-9.2,7.7-16.3,7.7h-107.8v26.5h107.8c16.4,0,31.3-9.7,38-24.8l36.3-82.8h-30Z"/>
  </g>
</svg>